{"title":"The.Joneses.2009.720p.BRRip.XviD.AC3-LEGi0N [semlimites.org]","uid":5737126,"size":2568779596,"categoryP":"video","categoryS":"hd___movies","magnet":"?xt=urn:btih:60f565135993833b4e05ab80855ea800d5c0b55d&amp;dn=The.Joneses.2009.720p.BRRip.XviD.AC3-LEGi0N+%5Bsemlimites.org%5D&amp;tr=udp%3A%2F%2Ftracker.openbittorrent.com%3A80&amp;tr=udp%3A%2F%2Fopen.demonii.com%3A1337&amp;tr=udp%3A%2F%2Ftracker.coppersurfer.tk%3A6969&amp;tr=udp%3A%2F%2Fexodus.desync.com%3A6969","seeders":0,"leechers":0,"uploader":null,"files":3,"time":1280856031,"description":"General\n\nFormat:AVI\nFile size: 2.37 GiB\nDuration: 1h 35mn\nOverall bit rate: 3 538 Kbps\nIMDB Rating: 6.5/10   659 votes\nGenre: Drama\nRelease Date: 16 April 2010            \nIMDb Link: http://www.imdb.com/title/tt1285309/\nSource: 1080p Bluray x264-MACHD\n\nVideo\n\nFormat: MPEG-4 Visual\nFormat profile: Streaming Video@L1\nFormat settings, BVOP: Yes\nFormat settings, QPel: No\nFormat settings, GMC: No warppoints\nFormat settings, Matrix: Default (H.263)\nMuxing mode: Packed bitstream\nCodec ID: XVID\nBit rate: 3 078 Kbps\nWidth: 1 280 pixels\nHeight: 544 pixels\nDisplay aspect ratio: 2.35\nFrame rate: 23.976 fps\nResolution: 24 bits\nColorimetry: 4:2:0\nScan type: Progressive\nBits/(Pixel*Frame): 0.184\nStream size: 2.06 GiB (87%)\n\nAudio\n\nFormat: AC-3\nBit rate mode: Constant\nBit rate: 448 Kbps\nChannel(s): 6 channels\nSampling rate: 48.0 KHz\nStream size: 307 MiB (13%)","torrent":{"xt":"urn:btih:60f565135993833b4e05ab80855ea800d5c0b55d","amp;dn":"The.Joneses.2009.720p.BRRip.XviD.AC3-LEGi0N+%5Bsemlimites.org%5D","amp;tr":["udp%3A%2F%2Ftracker.openbittorrent.com%3A80","udp%3A%2F%2Fopen.demonii.com%3A1337","udp%3A%2F%2Ftracker.coppersurfer.tk%3A6969","udp%3A%2F%2Fexodus.desync.com%3A6969"],"infoHash":"60f565135993833b4e05ab80855ea800d5c0b55d","infoHashBuffer":{"type":"Buffer","data":[96,245,101,19,89,147,131,59,78,5,171,128,133,94,168,0,213,192,181,93]},"announce":[],"urlList":[]}}